<svg width="8" height="15" viewBox="0 0 8 15" fill="none" xmlns="http://www.w3.org/2000/svg">
<path d="M6.82992 14.8467C6.68052 14.8472 6.53291 14.8142 6.39794 14.7502C6.26296 14.6862 6.14404 14.5927 6.04992 14.4767L1.21992 8.47671C1.07284 8.29778 0.992432 8.07334 0.992432 7.84171C0.992432 7.61009 1.07284 7.38564 1.21992 7.20671L6.21992 1.20671C6.38966 1.00249 6.63357 0.87407 6.898 0.84969C7.16242 0.825311 7.4257 0.906973 7.62992 1.07671C7.83414 1.24645 7.96256 1.49036 7.98694 1.75479C8.01132 2.01921 7.92966 2.28249 7.75992 2.48671L3.28992 7.84671L7.60992 13.2067C7.7322 13.3535 7.80988 13.5322 7.83376 13.7218C7.85764 13.9113 7.82672 14.1038 7.74467 14.2763C7.66261 14.4488 7.53285 14.5942 7.37074 14.6953C7.20863 14.7964 7.02095 14.8489 6.82992 14.8467Z" fill="#484649"/>
</svg>
