<svg width="8" height="15" viewBox="0 0 8 15" fill="none" xmlns="http://www.w3.org/2000/svg">
<path d="M1.16984 0.846648C1.31923 0.84614 1.46684 0.879112 1.60182 0.943141C1.7368 1.00717 1.85572 1.10063 1.94984 1.21665L6.77984 7.21665C6.92692 7.39558 7.00732 7.62002 7.00732 7.85165C7.00732 8.08327 6.92692 8.30772 6.77984 8.48665L1.77984 14.4866C1.6101 14.6909 1.36619 14.8193 1.10176 14.8437C0.837334 14.868 0.574053 14.7864 0.369836 14.6166C0.16562 14.4469 0.0371957 14.203 0.012816 13.9386C-0.0115638 13.6741 0.0700974 13.4109 0.239836 13.2066L4.70984 7.84665L0.389837 2.48665C0.267554 2.33986 0.189877 2.16112 0.165997 1.97157C0.142118 1.78203 0.173034 1.5896 0.25509 1.41707C0.337146 1.24455 0.466906 1.09913 0.629016 0.998044C0.791127 0.896954 0.978803 0.844417 1.16984 0.846648Z" fill="#484649"/>
</svg>
