<svg width="375" height="250" viewBox="0 0 375 250" fill="none" xmlns="http://www.w3.org/2000/svg">
<g clip-path="url(#clip0_4_2220)">
<path d="M296.593 99.0347L287.38 89.8788C283.883 86.4038 279.11 86.5851 276.768 90.3018L271.63 98.3697L288.049 114.687L296.167 109.581C299.664 107.375 299.877 102.298 296.593 99.0347V99.0347Z" stroke="#006B5A" stroke-width="8.64553" stroke-linecap="round" stroke-linejoin="round"/>
<path d="M271.966 98.5999L259.97 97.8732C253.285 97.4795 250.934 99.5082 250.202 105.837L247.211 131.029C246.57 136.328 250.446 140.144 255.757 139.508L281.154 136.54C287.533 135.783 289.853 133.482 289.182 126.851L288.48 114.951M250.353 135.964L259.586 126.73" stroke="#006B5A" stroke-width="8.64553" stroke-linecap="round" stroke-linejoin="round"/>
<path d="M254.262 79.3705C254.262 66.7921 243.984 56.5913 231.252 56.5913H139.213C126.481 56.5913 116.203 66.7921 116.203 79.3705V163.05C116.203 175.629 126.481 185.83 139.213 185.83H145.042C151.178 185.83 157.007 188.207 161.302 192.503L174.418 205.465C180.401 211.37 190.141 211.37 196.124 205.465L209.24 192.503C213.535 188.207 219.44 185.83 225.5 185.83H231.252C243.984 185.83 254.262 175.629 254.262 163.05V158.478" stroke="#006B5A" stroke-width="8.64553" stroke-linecap="round" stroke-linejoin="round"/>
<path d="M154.553 161.363C154.553 147.557 168.282 136.36 185.233 136.36C202.183 136.36 215.913 147.557 215.913 161.363M185.233 117.951C175.363 117.951 167.362 109.95 167.362 100.08C167.362 90.2101 175.363 82.2092 185.233 82.2092C195.103 82.2092 203.104 90.2101 203.104 100.08C203.104 109.95 195.103 117.951 185.233 117.951Z" stroke="#006B5A" stroke-width="8.64553" stroke-linecap="round" stroke-linejoin="round"/>
<path fill-rule="evenodd" clip-rule="evenodd" d="M66.1868 200.082H67.9509C68.1551 200.082 68.3508 200.163 68.4951 200.308C68.6395 200.452 68.7207 200.648 68.7209 200.852V202.616C68.7207 202.82 68.6395 203.015 68.4951 203.16C68.3508 203.304 68.1551 203.385 67.9509 203.385H66.1868C65.9828 203.385 65.7874 203.303 65.6431 203.159C65.4989 203.015 65.4175 202.819 65.4167 202.616V200.852C65.4165 200.751 65.4363 200.65 65.4749 200.557C65.5135 200.463 65.5702 200.378 65.6418 200.307C65.7133 200.235 65.7983 200.179 65.8918 200.14C65.9853 200.101 66.0856 200.082 66.1868 200.082ZM72.3026 200.082H74.0667C74.4897 200.082 74.8368 200.429 74.8368 200.852V202.616C74.8365 202.82 74.7553 203.015 74.611 203.16C74.4666 203.304 74.2709 203.385 74.0667 203.385H72.3026C72.0986 203.385 71.9033 203.303 71.7591 203.159C71.6149 203.015 71.5337 202.819 71.533 202.616V200.852C71.533 200.429 71.8797 200.082 72.3026 200.082ZM78.423 200.082H80.1872C80.6101 200.082 80.9572 200.429 80.9572 200.852V202.616C80.9569 202.82 80.8757 203.015 80.7314 203.16C80.587 203.304 80.3913 203.385 80.1872 203.385H78.423C78.219 203.385 78.0236 203.303 77.8794 203.159C77.7351 203.015 77.6538 202.819 77.653 202.616V200.852C77.6528 200.751 77.6725 200.65 77.7112 200.557C77.7498 200.463 77.8065 200.378 77.878 200.307C77.9496 200.235 78.0346 200.179 78.1281 200.14C78.2216 200.101 78.3218 200.082 78.423 200.082ZM84.5388 200.082H86.303C86.7259 200.082 87.073 200.429 87.073 200.852V202.616C87.0728 202.82 86.9916 203.015 86.8472 203.16C86.7029 203.304 86.5071 203.385 86.303 203.385H84.5388C84.3343 203.385 84.1382 203.304 83.9933 203.16C83.8484 203.016 83.7665 202.82 83.7655 202.616V200.852C83.7677 200.648 83.85 200.453 83.9946 200.309C84.1393 200.164 84.3347 200.083 84.5388 200.082ZM90.6555 200.082H92.4197C92.8463 200.082 93.1934 200.429 93.1934 200.852V202.616C93.1933 202.717 93.1731 202.817 93.1341 202.911C93.0951 203.004 93.0381 203.089 92.9662 203.161C92.8943 203.232 92.8091 203.289 92.7153 203.328C92.6215 203.366 92.5211 203.386 92.4197 203.385H90.6555C90.4516 203.385 90.2562 203.303 90.112 203.159C89.9679 203.015 89.8866 202.819 89.8859 202.616V200.852C89.8859 200.429 90.2326 200.082 90.6555 200.082ZM72.5272 206.751H74.2913C74.7142 206.751 75.0613 207.098 75.0613 207.521V209.288C75.0606 209.492 74.9792 209.688 74.835 209.832C74.6907 209.976 74.4953 210.058 74.2913 210.058H72.5272C72.323 210.058 72.1272 209.977 71.9828 209.833C71.8384 209.688 71.7573 209.493 71.7572 209.288V207.525C71.7566 207.423 71.776 207.323 71.8145 207.229C71.8529 207.135 71.9095 207.049 71.9811 206.978C72.0527 206.906 72.1378 206.849 72.2315 206.81C72.3252 206.771 72.4257 206.751 72.5272 206.751ZM78.6434 206.751H80.4072C80.8301 206.751 81.1772 207.098 81.1772 207.521V209.288C81.1764 209.492 81.095 209.688 80.9508 209.832C80.8066 209.976 80.6111 210.058 80.4072 210.058H78.6434C78.4394 210.058 78.244 209.976 78.0998 209.832C77.9556 209.688 77.8742 209.492 77.8734 209.288V207.525C77.8728 207.423 77.8923 207.323 77.9307 207.229C77.9692 207.135 78.0258 207.049 78.0974 206.978C78.1689 206.906 78.254 206.849 78.3478 206.81C78.4415 206.771 78.542 206.751 78.6434 206.751ZM84.7597 206.751H86.5238C86.9505 206.751 87.2976 207.098 87.2976 207.521V209.288C87.2966 209.493 87.2146 209.689 87.0696 209.833C86.9246 209.977 86.7284 210.058 86.5238 210.058H84.7597C84.5557 210.058 84.3603 209.976 84.216 209.832C84.0718 209.688 83.9904 209.492 83.9897 209.288V207.525C83.9897 207.098 84.3368 206.751 84.7597 206.751ZM78.423 192.917H80.1872C80.6101 192.917 80.9572 193.264 80.9572 193.687V195.451C80.9569 195.655 80.8757 195.851 80.7314 195.995C80.587 196.14 80.3913 196.221 80.1872 196.221H78.423C78.219 196.22 78.0236 196.139 77.8794 195.995C77.7351 195.85 77.6538 195.655 77.653 195.451V193.687C77.6528 193.586 77.6725 193.485 77.7112 193.392C77.7498 193.298 77.8065 193.213 77.878 193.142C77.9496 193.07 78.0346 193.014 78.1281 192.975C78.2216 192.936 78.3218 192.917 78.423 192.917ZM72.3088 192.917H74.073C74.4959 192.917 74.843 193.264 74.843 193.687V195.451C74.8428 195.655 74.7616 195.851 74.6172 195.995C74.4729 196.14 74.2771 196.221 74.073 196.221H72.3088C72.1049 196.22 71.9094 196.139 71.7652 195.995C71.621 195.85 71.5396 195.655 71.5388 195.451V193.687C71.5387 193.586 71.5585 193.485 71.5971 193.392C71.6358 193.298 71.6925 193.213 71.764 193.142C71.8355 193.07 71.9205 193.014 72.014 192.975C72.1075 192.936 72.2077 192.917 72.3088 192.917ZM84.5388 192.917H86.303C86.7259 192.917 87.073 193.264 87.073 193.687V195.451C87.0728 195.655 86.9916 195.851 86.8472 195.995C86.7029 196.14 86.5071 196.221 86.303 196.221H84.5388C84.3343 196.221 84.1382 196.14 83.9933 195.995C83.8484 195.851 83.7665 195.655 83.7655 195.451V193.687C83.7677 193.483 83.85 193.288 83.9946 193.144C84.1393 192.999 84.3347 192.918 84.5388 192.917Z" fill="#E1E4E5"/>
<path d="M107.42 43.3532C113.6 46.4191 121.804 42.477 121.804 42.477C121.804 42.477 119.98 33.5661 113.797 30.5045C107.616 27.4386 99.4163 31.3761 99.4163 31.3761C99.4163 31.3761 101.24 40.2874 107.42 43.3532Z" fill="url(#paint0_linear_4_2220)"/>
<path d="M77.9224 56.5468C80.2404 56.5468 82.1195 58.4259 82.1195 60.7438C82.1195 63.0618 80.2404 64.9409 77.9224 64.9409C75.6044 64.9409 73.7253 63.0618 73.7253 60.7438C73.7253 58.4259 75.6044 56.5468 77.9224 56.5468Z" fill="#006B5A"/>
<path d="M246.109 30.7701C250.469 30.7701 254.003 34.3043 254.003 38.6639C254.003 43.0235 250.469 46.5576 246.109 46.5576C241.75 46.5576 238.216 43.0235 238.216 38.6639C238.216 34.3043 241.75 30.7701 246.109 30.7701Z" fill="#006B5A"/>
<path d="M305.31 86.3642C307.627 86.3642 309.505 84.4859 309.505 82.1688C309.505 79.8517 307.627 77.9734 305.31 77.9734C302.993 77.9734 301.115 79.8517 301.115 82.1688C301.115 84.4859 302.993 86.3642 305.31 86.3642Z" fill="#006B5A"/>
<path d="M73.5329 106.887C76.8077 106.887 79.4624 104.232 79.4624 100.957C79.4624 97.6826 76.8077 95.0278 73.5329 95.0278C70.258 95.0278 67.6033 97.6826 67.6033 100.957C67.6033 104.232 70.258 106.887 73.5329 106.887Z" fill="#E1E4E5"/>
<path d="M234.667 223.63C238.783 223.63 242.12 220.293 242.12 216.176C242.12 212.06 238.783 208.722 234.667 208.722C230.55 208.722 227.213 212.06 227.213 216.176C227.213 220.293 230.55 223.63 234.667 223.63Z" fill="#E1E4E5"/>
<path d="M273.349 170.712C272.502 173.87 274.377 177.116 277.535 177.962C280.693 178.809 283.939 176.935 284.785 173.776C285.631 170.618 283.757 167.372 280.599 166.526C277.441 165.68 274.195 167.554 273.349 170.712Z" fill="#E1E4E5"/>
<path d="M77.5967 161.568C80.9426 161.568 83.655 159.398 83.655 156.722C83.655 154.045 80.9426 151.875 77.5967 151.875C74.2507 151.875 71.5383 154.045 71.5383 156.722C71.5383 159.398 74.2507 161.568 77.5967 161.568Z" fill="#E1E4E5"/>
<path d="M126.2 216.206C126.2 221.546 130.529 225.875 135.869 225.875C141.209 225.875 145.538 221.546 145.538 216.206C145.538 210.865 141.209 206.536 135.869 206.536C130.529 206.536 126.2 210.865 126.2 216.206Z" fill="#E1E4E5"/>
</g>
<defs>
<linearGradient id="paint0_linear_4_2220" x1="131.154" y1="52.9166" x2="80.1767" y2="12.5936" gradientUnits="userSpaceOnUse">
<stop stop-color="white"/>
<stop offset="1" stop-color="#EEEEEE"/>
</linearGradient>
<clipPath id="clip0_4_2220">
<rect width="375" height="250" fill="white"/>
</clipPath>
</defs>
</svg>
