<svg width="60" height="28" viewBox="0 0 60 28" fill="none" xmlns="http://www.w3.org/2000/svg">
<g clip-path="url(#clip0_4_2500)">
<path d="M27.649 0.258789V13.9652C27.649 16.6761 26.8441 19.3261 25.336 21.5801C23.8279 23.8341 21.6845 25.5909 19.1766 26.6283C16.6688 27.6657 13.9093 27.9371 11.247 27.4082C8.58466 26.8794 6.13919 25.574 4.21978 23.6571C2.30037 21.7402 0.993235 19.298 0.463671 16.6392C-0.0658934 13.9804 0.205897 11.2245 1.24467 8.71998C2.28345 6.21546 4.04256 4.07482 6.29955 2.56874C8.55653 1.06266 11.21 0.258789 13.9245 0.258789H27.649Z" fill="white"/>
<path d="M32.3154 27.6716V13.9652C32.3154 11.2543 33.1204 8.60433 34.6284 6.35033C36.1365 4.09632 38.28 2.33954 40.7878 1.30214C43.2956 0.264732 46.0552 -0.00670606 48.7175 0.522159C51.3798 1.05102 53.8253 2.35643 55.7447 4.27331C57.6641 6.19018 58.9712 8.63243 59.5008 11.2912C60.0304 13.95 59.7586 16.7059 58.7198 19.2104C57.681 21.7149 55.9219 23.8556 53.6649 25.3617C51.4079 26.8677 48.7544 27.6716 46.04 27.6716H32.3154Z" fill="white"/>
</g>
<defs>
<clipPath id="clip0_4_2500">
<rect width="60" height="27.8469" fill="white" transform="translate(0 0.0766602)"/>
</clipPath>
</defs>
</svg>
