<svg width="371" height="247" viewBox="0 0 371 247" fill="none" xmlns="http://www.w3.org/2000/svg">
<g clip-path="url(#clip0_4_2346)">
<path d="M274.032 67.3549C266.505 42.8233 201.456 11.1616 150.064 50.5215C126.163 68.8283 133.582 81.9662 119.82 107.902C111.617 123.361 97.0862 138.101 98.057 155.848C98.8918 171.168 106.919 185.023 117.777 191.971C142.198 207.595 180.89 210.247 201.118 164.129C221.345 118.012 293.435 130.626 274.032 67.3549Z" fill="url(#paint0_linear_4_2346)"/>
<path d="M296.174 144.376C291.038 137.78 282.031 138.13 268.051 141.647C257.538 144.293 247.929 146.564 238.139 153.988C231.287 159.182 226.209 165.575 222.704 171.568C218.905 178.061 213.38 185.651 217.575 191.726C223.339 200.071 249.918 203.812 272.726 187.666C297.781 169.926 301.199 150.821 296.174 144.376Z" fill="url(#paint1_linear_4_2346)"/>
<path d="M116.443 85.8626C109.225 105.083 102.001 125.393 88.7851 137.98C75.155 150.967 70.7689 146.384 67.3726 138.141C63.9759 129.898 63.4746 108.349 82.178 91.0064C100.887 73.6592 123.196 67.8745 116.443 85.8626Z" fill="url(#paint2_linear_4_2346)"/>
<path fill-rule="evenodd" clip-rule="evenodd" d="M131.902 63.1538H244.296C253.167 63.1538 260.352 70.3292 260.352 79.1882V82.2749H115.846V79.1882C115.846 70.3292 123.031 63.1538 131.902 63.1538ZM115.846 102.974V183.413C115.846 192.272 123.031 199.448 131.902 199.448H244.296C253.167 199.448 260.352 192.272 260.352 183.413V102.974H115.846Z" fill="#006B5A"/>
<path d="M260.352 82.275V87.455C263.216 87.455 265.539 85.1361 265.539 82.275H260.352ZM115.846 82.275H110.659C110.659 85.1361 112.981 87.455 115.846 87.455V82.275ZM115.846 102.974V97.794C112.981 97.794 110.659 100.113 110.659 102.974H115.846ZM260.352 102.974H265.539C265.539 100.113 263.216 97.794 260.352 97.794V102.974ZM244.296 57.9739H131.902V68.3339H244.296V57.9739ZM265.539 79.1883C265.539 67.4686 256.031 57.9739 244.296 57.9739V68.3339C250.302 68.3339 255.165 73.1899 255.165 79.1883H265.539ZM265.539 82.275V79.1883H255.165V82.275H265.539ZM115.846 87.455H260.352V77.095H115.846V87.455ZM110.659 79.1883V82.275H121.033V79.1883H110.659ZM131.902 57.9739C120.167 57.9739 110.659 67.4686 110.659 79.1883H121.033C121.033 73.1899 125.896 68.3339 131.902 68.3339V57.9739ZM110.659 102.974V183.413H121.033V102.974H110.659ZM110.659 183.413C110.659 195.133 120.167 204.628 131.902 204.628V194.268C125.896 194.268 121.033 189.411 121.033 183.413H110.659ZM131.902 204.628H244.296V194.268H131.902V204.628ZM244.296 204.628C256.031 204.628 265.539 195.133 265.539 183.413H255.165C255.165 189.411 250.302 194.268 244.296 194.268V204.628ZM265.539 183.413V102.974H255.165V183.413H265.539ZM260.352 97.794H115.846V108.154H260.352V97.794Z" fill="#006B5A"/>
<path d="M141.876 117.913H133.095C129.248 117.913 126.13 121.027 126.13 124.868V133.638C126.13 137.479 129.248 140.593 133.095 140.593H141.876C145.723 140.593 148.841 137.479 148.841 133.638V124.868C148.841 121.027 145.723 117.913 141.876 117.913Z" fill="white"/>
<path d="M141.876 153.097H133.095C129.248 153.097 126.13 156.211 126.13 160.052V168.822C126.13 172.663 129.248 175.777 133.095 175.777H141.876C145.723 175.777 148.841 172.663 148.841 168.822V160.052C148.841 156.211 145.723 153.097 141.876 153.097Z" fill="white"/>
<path d="M175.691 117.913H166.537C162.691 117.913 159.573 121.027 159.573 124.868V133.638C159.573 137.479 162.691 140.593 166.537 140.593H175.691C179.537 140.593 182.656 137.479 182.656 133.638V124.868C182.656 121.027 179.537 117.913 175.691 117.913Z" fill="white"/>
<path d="M175.691 153.097H166.537C162.691 153.097 159.573 156.211 159.573 160.052V168.822C159.573 172.663 162.691 175.777 166.537 175.777H175.691C179.537 175.777 182.656 172.663 182.656 168.822V160.052C182.656 156.211 179.537 153.097 175.691 153.097Z" fill="white"/>
<path d="M209.134 117.913H200.352C196.506 117.913 193.388 121.027 193.388 124.868V133.638C193.388 137.479 196.506 140.593 200.352 140.593H209.134C212.98 140.593 216.098 137.479 216.098 133.638V124.868C216.098 121.027 212.98 117.913 209.134 117.913Z" fill="white"/>
<path d="M209.134 153.097H200.352C196.506 153.097 193.388 156.211 193.388 160.052V168.822C193.388 172.663 196.506 175.777 200.352 175.777H209.134C212.98 175.777 216.098 172.663 216.098 168.822V160.052C216.098 156.211 212.98 153.097 209.134 153.097Z" fill="white"/>
<path d="M242.576 117.913H233.794C229.948 117.913 226.83 121.027 226.83 124.868V133.638C226.83 137.479 229.948 140.593 233.794 140.593H242.576C246.422 140.593 249.54 137.479 249.54 133.638V124.868C249.54 121.027 246.422 117.913 242.576 117.913Z" fill="white"/>
<path d="M139.139 44.3669H139.139C136.56 44.3669 134.47 46.4542 134.47 49.0291V73.007C134.47 75.5818 136.56 77.6691 139.139 77.6691H139.139C141.717 77.6691 143.807 75.5818 143.807 73.007V49.0291C143.807 46.4542 141.717 44.3669 139.139 44.3669Z" fill="#006B5A"/>
<path d="M204.055 44.3669H204.055C201.476 44.3669 199.386 46.4542 199.386 49.0291V73.007C199.386 75.5818 201.476 77.6691 204.055 77.6691H204.055C206.633 77.6691 208.723 75.5818 208.723 73.007V49.0291C208.723 46.4542 206.633 44.3669 204.055 44.3669Z" fill="#006B5A"/>
<path d="M171.597 44.3669H171.597C169.018 44.3669 166.928 46.4542 166.928 49.0291V73.007C166.928 75.5818 169.018 77.6691 171.597 77.6691H171.597C174.175 77.6691 176.265 75.5818 176.265 73.007V49.0291C176.265 46.4542 174.175 44.3669 171.597 44.3669Z" fill="#006B5A"/>
<path d="M236.513 44.3669H236.513C233.934 44.3669 231.844 46.4542 231.844 49.0291V73.007C231.844 75.5818 233.934 77.6691 236.513 77.6691H236.513C239.091 77.6691 241.181 75.5818 241.181 73.007V49.0291C241.181 46.4542 239.091 44.3669 236.513 44.3669Z" fill="#006B5A"/>
<path fill-rule="evenodd" clip-rule="evenodd" d="M281.178 156.958C294.45 170.212 294.45 191.7 281.178 204.954C267.907 218.208 246.389 218.208 233.118 204.954C219.846 191.7 219.846 170.212 233.118 156.958C246.389 143.705 267.907 143.705 281.178 156.958Z" fill="#006B5A"/>
<path d="M281.178 156.958C294.45 170.212 294.45 191.7 281.178 204.954C267.907 218.208 246.389 218.208 233.118 204.954C219.846 191.7 219.846 170.212 233.118 156.958C246.389 143.705 267.907 143.705 281.178 156.958" stroke="white" stroke-width="14.287" stroke-linecap="round" stroke-linejoin="round"/>
<path d="M270.74 191.293L257.205 183.23V165.853" stroke="white" stroke-width="10.404" stroke-linecap="round" stroke-linejoin="round"/>
<path d="M289.383 73.5015C285.362 75.8203 280.219 74.4442 277.897 70.4279C275.575 66.4116 276.953 61.2759 280.975 58.9571C284.997 56.6383 290.139 58.0144 292.461 62.0307C294.783 66.047 293.405 71.1827 289.383 73.5015Z" fill="#006B5A"/>
<path d="M289.671 99.4307C289.671 101.516 287.978 103.207 285.889 103.207C283.801 103.207 282.107 101.516 282.107 99.4307C282.107 97.3449 283.801 95.6541 285.889 95.6541C287.978 95.6541 289.671 97.3449 289.671 99.4307Z" fill="#E1E4E5"/>
<path d="M101.345 91.434C99.5035 91.434 98.0104 92.925 98.0104 94.7643C98.0104 96.6037 99.5035 98.0947 101.345 98.0947C103.187 98.0947 104.68 96.6037 104.68 94.7643C104.68 92.925 103.187 91.434 101.345 91.434Z" fill="#E1E4E5"/>
<path d="M66.2196 174.468C69.7803 174.468 72.6668 177.351 72.6668 180.907C72.6668 184.462 69.7803 187.345 66.2196 187.345C62.659 187.345 59.7725 184.462 59.7725 180.907C59.7725 177.351 62.659 174.468 66.2196 174.468Z" fill="#E1E4E5"/>
<path d="M191.432 48.3178C189.365 49.5098 186.721 48.8024 185.527 46.7378C184.334 44.6731 185.042 42.033 187.11 40.841C189.177 39.649 191.821 40.3564 193.014 42.421C194.208 44.4857 193.5 47.1258 191.432 48.3178Z" fill="#E1E4E5"/>
<path d="M129.134 65.2364C130.853 65.2364 132.247 63.7454 132.247 61.9061C132.247 60.0667 130.853 58.5757 129.134 58.5757C127.415 58.5757 126.022 60.0667 126.022 61.9061C126.022 63.7454 127.415 65.2364 129.134 65.2364Z" fill="#006B5A"/>
<path d="M303.083 135.874C298.529 133.248 292.707 134.806 290.079 139.353C287.45 143.9 289.01 149.714 293.563 152.339C298.116 154.965 303.938 153.407 306.567 148.86C309.196 144.313 307.636 138.499 303.083 135.874Z" fill="#006B5A"/>
<path d="M82.6961 125.22C80.6484 124.039 78.03 124.74 76.8477 126.785C75.6655 128.83 76.3671 131.444 78.4148 132.625C80.4625 133.806 83.081 133.105 84.2632 131.06C85.4455 129.015 84.7439 126.4 82.6961 125.22Z" fill="#006B5A"/>
<path d="M94.6759 156.707C92.8341 156.707 91.341 155.216 91.341 153.376C91.341 151.537 92.8341 150.046 94.6759 150.046C96.5177 150.046 98.0107 151.537 98.0107 153.376C98.0107 155.216 96.5177 156.707 94.6759 156.707Z" fill="#E1E4E5"/>
<path d="M283.302 126.831C284.504 127.524 284.916 129.06 284.222 130.26C283.528 131.461 281.991 131.872 280.788 131.179C279.586 130.486 279.174 128.951 279.868 127.75C280.562 126.549 282.1 126.138 283.302 126.831Z" fill="#E1E4E5"/>
<path d="M76.2235 80.3334C80.1525 80.3334 83.3376 77.252 83.3376 73.4508C83.3376 69.6496 80.1525 66.5681 76.2235 66.5681C72.2945 66.5681 69.1094 69.6496 69.1094 73.4508C69.1094 77.252 72.2945 80.3334 76.2235 80.3334Z" fill="#E1E4E5"/>
<path d="M223.408 210.743C220.861 210.743 218.797 212.805 218.797 215.348C218.797 217.891 220.861 219.952 223.408 219.952C225.954 219.952 228.019 217.891 228.019 215.348C228.019 212.805 225.954 210.743 223.408 210.743Z" fill="#E1E4E5"/>
</g>
<defs>
<linearGradient id="paint0_linear_4_2346" x1="164.803" y1="-56.208" x2="222.313" y2="372.93" gradientUnits="userSpaceOnUse">
<stop stop-color="white"/>
<stop offset="1" stop-color="#EEEEEE"/>
</linearGradient>
<linearGradient id="paint1_linear_4_2346" x1="261.848" y1="101.79" x2="250.376" y2="268.982" gradientUnits="userSpaceOnUse">
<stop stop-color="white"/>
<stop offset="1" stop-color="#EEEEEE"/>
</linearGradient>
<linearGradient id="paint2_linear_4_2346" x1="89.342" y1="36.3573" x2="98.3762" y2="221.445" gradientUnits="userSpaceOnUse">
<stop stop-color="white"/>
<stop offset="1" stop-color="#EEEEEE"/>
</linearGradient>
<clipPath id="clip0_4_2346">
<rect width="371" height="247" fill="white"/>
</clipPath>
</defs>
</svg>
