<svg width="387" height="258" viewBox="0 0 387 258" fill="none" xmlns="http://www.w3.org/2000/svg">
<g clip-path="url(#clip0_4_2268)">
<path d="M325.295 207.26H62.135C60.8289 207.26 59.77 208.319 59.77 209.625C59.77 210.931 60.8289 211.99 62.135 211.99H325.295C326.601 211.99 327.66 210.931 327.66 209.625C327.66 208.319 326.601 207.26 325.295 207.26Z" fill="#E1E4E5"/>
<path d="M179.851 207.424C179.851 207.424 156.082 176.97 146.148 172.304C135.561 167.331 144.74 184.561 144.74 184.561C144.74 184.561 122.104 162.368 116.787 167.909C111.469 173.45 117.148 178.636 117.148 178.636C117.148 178.636 98.1931 175.12 95.4278 182.208C91.1811 193.098 122.358 198.514 122.358 198.514C122.358 198.514 107.422 195.242 110.411 201.985C114.916 212.15 179.851 207.424 179.851 207.424Z" fill="#E1E4E5"/>
<path d="M217.447 194.031C217.447 194.031 209.339 156.94 200.766 151.771C192.193 146.599 182.491 157.076 182.491 157.076C182.491 157.076 168.991 147.496 162.624 149.576C156.258 151.656 161.903 158.823 161.903 158.823C161.903 158.823 140.167 150.252 137.759 154.504C133.279 162.428 156.345 172.945 156.345 172.945C156.345 172.945 146.209 170.79 146.283 176.182C146.395 184.313 169.597 183.506 169.597 183.506C169.597 183.506 160.664 184.605 163.317 189.455C168.078 198.158 217.447 194.031 217.447 194.031ZM77.6331 54.4668C77.6331 54.4668 86.274 52.1478 89.253 71.9579C92.2321 91.7675 92.2531 102.619 92.2531 102.619C92.2531 102.619 93.3475 106.926 96.5596 105.418C99.7721 103.909 105.301 98.448 109.051 101.012C112.938 103.673 112.75 108.938 109.583 115.713C106.415 122.487 100.021 137.572 99.447 138.943C98.8816 140.281 98.9985 142.578 101.351 141.9C103.704 141.221 118.796 132.636 122.438 140.038C126.088 147.442 114.159 164.86 112.894 166.786C111.628 168.713 111.735 169.758 112.565 170.618C113.394 171.477 118.198 168.113 122.587 165.843C126.977 163.574 132.47 161.72 134.216 166.168C135.961 170.616 132.076 185.373 110.505 204.247L99.9381 212.339L87.5094 207.415C61.5558 195.257 53.7311 182.152 54.1783 177.396C54.626 172.64 60.4142 172.899 65.2642 173.863C70.1141 174.826 75.6611 176.726 76.2197 175.67C76.7783 174.613 76.5981 173.583 74.8472 172.08C73.0962 170.578 56.8117 157.152 58.2668 149.022C59.7193 140.901 76.599 144.967 79.0474 144.959C81.4937 144.96 80.9639 142.725 80.0527 141.594C79.1214 140.44 68.7915 127.714 63.8748 122.08C58.9556 116.456 57.3182 111.443 60.3162 107.81C63.2028 104.302 70.035 108.028 73.5374 108.587C77.0402 109.146 76.897 104.698 76.897 104.698C76.897 104.698 73.9037 94.2645 71.2829 74.4046C68.662 54.5442 77.8253 54.4238 77.8253 54.4238" fill="#E1E4E5"/>
<path d="M100.159 209.555C98.182 194.976 95.2769 174.858 91.9853 152.647C88.6992 130.447 85.7477 110.343 83.6815 95.774C82.6573 88.5048 81.8321 82.6156 81.2572 78.5245C80.9721 76.5014 80.7485 74.9254 80.5933 73.8328C80.5172 73.3129 80.4535 72.9079 80.4118 72.6129C80.3641 72.3416 80.334 72.1958 80.334 72.1958C80.334 72.1958 80.34 72.3351 80.3675 72.6181C80.4011 72.9113 80.4466 73.3198 80.5043 73.8436C80.6414 74.9396 80.8388 76.5173 81.0873 78.5478C81.5956 82.6298 82.3743 88.5324 83.3681 95.8191C85.3448 110.399 88.252 130.508 91.5359 152.717C94.8194 174.925 97.7791 195.032 99.8371 209.598" fill="white"/>
<path d="M101.621 108.97C101.59 108.954 101.382 109.217 101.006 109.719C100.633 110.213 100.118 110.945 99.495 111.855C98.2472 113.683 96.5874 116.245 94.8093 119.119C93.0786 121.946 91.5056 124.505 90.2956 126.481C89.7521 127.352 89.2959 128.091 88.9162 128.704C88.5864 129.227 88.42 129.527 88.4496 129.544C88.4797 129.561 88.696 129.3 89.0697 128.806C89.4352 128.309 89.9503 127.577 90.5674 126.657C91.8011 124.817 93.4252 122.229 95.1929 119.36L99.7565 112.037C100.3 111.166 100.764 110.429 101.144 109.816C101.476 109.285 101.642 108.985 101.621 108.97ZM87.2194 129.378C87.2895 129.276 82.154 125.618 75.7431 121.221C69.334 116.816 64.0742 113.33 64.0041 113.432C63.9336 113.534 69.0717 117.185 75.4804 121.59C81.8973 125.997 87.1489 129.48 87.2194 129.378ZM93.8023 163.256C93.8109 163.224 93.4819 163.101 92.892 162.892C92.2035 162.664 91.3564 162.386 90.361 162.05C88.2252 161.34 85.2711 160.341 82.056 159.127C78.8391 157.92 75.9629 156.728 73.8804 155.851C72.9124 155.445 72.0929 155.096 71.4191 154.812C70.8381 154.57 70.507 154.456 70.4924 154.478C70.4756 154.508 70.7839 154.676 71.3421 154.972C71.9024 155.26 72.7228 155.67 73.7501 156.143C75.7952 157.096 78.6663 158.339 81.8917 159.548C85.1146 160.765 88.0919 161.709 90.2629 162.351C91.3496 162.668 92.2336 162.905 92.8386 163.058C93.4514 163.214 93.7937 163.289 93.8023 163.256ZM110.886 147.659C110.866 147.637 110.609 147.826 110.149 148.193C109.514 148.717 108.884 149.246 108.259 149.78C106.199 151.549 104.155 153.336 102.128 155.141C99.753 157.253 97.6151 159.187 96.0817 160.602C95.4742 161.159 94.8746 161.725 94.283 162.3C93.8646 162.704 93.6445 162.947 93.6642 162.969C93.684 162.992 93.9416 162.802 94.4021 162.435C94.8541 162.065 95.4991 161.522 96.2915 160.847C97.8787 159.49 100.048 157.599 102.422 155.487C104.797 153.375 106.935 151.442 108.461 150.024C109.068 149.467 109.668 148.901 110.259 148.327C110.686 147.924 110.914 147.684 110.886 147.659ZM120.497 176.826C120.477 176.804 120.144 177.051 119.561 177.523C118.918 178.057 118.099 178.734 117.131 179.551C114.478 181.803 111.842 184.075 109.223 186.365C106.153 189.049 103.387 191.494 101.401 193.28C100.62 193.991 99.8404 194.704 99.062 195.418C98.5207 195.928 98.2248 196.227 98.2446 196.25C98.2644 196.273 98.5976 196.026 99.1807 195.553C99.8236 195.019 100.642 194.343 101.611 193.525C104.263 191.273 106.899 189.002 109.518 186.711C112.589 184.028 115.355 181.582 117.34 179.797C118.275 178.944 119.063 178.225 119.68 177.658C120.229 177.151 120.516 176.849 120.497 176.826ZM98.6505 195.635C98.6591 195.603 98.248 195.433 97.5063 195.148C96.6755 194.839 95.6109 194.442 94.3329 193.97C91.6553 192.968 87.9526 191.58 83.9157 189.93C79.8763 188.287 76.2514 186.705 73.6353 185.538C72.6019 185.085 71.5702 184.627 70.5401 184.166C69.8066 183.849 69.3955 183.679 69.3791 183.709C69.3624 183.739 69.7524 183.956 70.4627 184.327C71.1727 184.698 72.2137 185.218 73.505 185.831C76.8726 187.437 80.2867 188.943 83.7429 190.349C87.1989 191.757 90.6951 193.064 94.2271 194.269C95.5855 194.728 96.6876 195.084 97.453 195.314C98.2098 195.543 98.6359 195.657 98.6505 195.635Z" fill="white"/>
<path d="M264.278 85.053C264.278 85.053 257.474 83.2268 255.128 98.8259C252.782 114.425 252.766 122.969 252.766 122.969C252.766 122.969 251.904 126.361 249.375 125.173C246.845 123.985 242.491 119.685 239.539 121.704C236.478 123.799 236.626 127.945 239.12 133.279C241.614 138.614 246.649 150.492 247.101 151.571C247.546 152.625 247.454 154.434 245.602 153.899C243.749 153.365 231.865 146.605 228.998 152.434C226.124 158.264 235.517 171.979 236.513 173.496C237.51 175.013 237.425 175.836 236.772 176.513C236.119 177.19 232.337 174.54 228.88 172.753C225.424 170.966 221.098 169.507 219.724 173.009C218.349 176.511 221.408 188.131 238.394 202.993L246.715 209.365L256.501 205.487C276.938 195.915 283.099 185.595 282.747 181.85C282.394 178.105 277.837 178.309 274.018 179.068C270.199 179.827 265.831 181.323 265.391 180.491C264.951 179.659 265.093 178.848 266.472 177.664C267.85 176.481 280.673 165.909 279.528 159.508C278.384 153.113 265.092 156.315 263.164 156.309C261.238 156.31 261.655 154.55 262.373 153.659C263.106 152.75 271.24 142.729 275.112 138.293C278.985 133.864 280.274 129.917 277.914 127.056C275.641 124.294 270.261 127.228 267.503 127.668C264.745 128.109 264.858 124.606 264.858 124.606C264.858 124.606 267.215 116.391 269.279 100.752C271.342 85.1137 264.127 85.0191 264.127 85.0191" fill="#E1E4E5"/>
<path d="M246.541 207.173C248.098 195.693 250.385 179.852 252.977 162.363C255.565 144.882 257.889 129.051 259.516 117.579C260.322 111.855 260.972 107.218 261.425 103.997C261.649 102.404 261.825 101.163 261.947 100.302C262.007 99.893 262.058 99.5743 262.09 99.3417C262.128 99.128 262.152 99.0132 262.152 99.0132C262.152 99.0132 262.147 99.1228 262.125 99.346C262.099 99.5765 262.063 99.8981 262.018 100.311C261.91 101.174 261.754 102.416 261.559 104.015C261.158 107.229 260.545 111.877 259.763 117.615C258.206 129.095 255.917 144.929 253.331 162.417C250.746 179.905 248.415 195.737 246.794 207.207" fill="white"/>
<path d="M245.39 127.971C245.414 127.957 245.578 128.165 245.874 128.56C246.168 128.949 246.573 129.525 247.064 130.242C248.046 131.681 249.353 133.699 250.753 135.962C252.116 138.188 253.355 140.203 254.308 141.759C254.736 142.444 255.095 143.027 255.394 143.509C255.654 143.921 255.785 144.158 255.761 144.171C255.737 144.184 255.567 143.979 255.273 143.589C254.985 143.198 254.58 142.622 254.094 141.897C253.122 140.448 251.844 138.41 250.451 136.151L246.858 130.385C246.43 129.7 246.064 129.12 245.765 128.637C245.504 128.218 245.373 127.982 245.39 127.971ZM256.73 144.04C256.674 143.96 260.719 141.079 265.767 137.617C270.813 134.148 274.955 131.404 275.01 131.484C275.066 131.564 271.02 134.439 265.973 137.907C260.921 141.378 256.785 144.121 256.73 144.04ZM251.546 170.716C251.539 170.691 251.799 170.594 252.263 170.429C252.805 170.25 253.472 170.031 254.256 169.767C255.937 169.207 258.264 168.421 260.795 167.465C263.329 166.514 265.593 165.575 267.233 164.885C267.995 164.566 268.641 164.291 269.171 164.067C269.629 163.877 269.889 163.787 269.901 163.804C269.914 163.828 269.671 163.96 269.232 164.193C268.606 164.514 267.974 164.822 267.335 165.115C265.233 166.089 263.095 166.984 260.925 167.796C258.755 168.611 256.556 169.347 254.333 170.004C253.477 170.253 252.781 170.44 252.305 170.56C251.822 170.683 251.553 170.742 251.546 170.716ZM238.094 158.435C238.11 158.417 238.312 158.566 238.675 158.856C239.031 159.147 239.539 159.574 240.162 160.105C241.785 161.497 243.394 162.904 244.99 164.326C246.59 165.746 248.177 167.179 249.751 168.626C250.23 169.065 250.702 169.511 251.167 169.963C251.497 170.282 251.671 170.473 251.655 170.49C251.639 170.508 251.436 170.359 251.074 170.069C250.718 169.778 250.21 169.351 249.586 168.82C247.964 167.427 246.355 166.02 244.758 164.599C242.888 162.936 241.205 161.413 240.004 160.297C239.525 159.858 239.053 159.413 238.587 158.96C238.252 158.643 238.072 158.454 238.094 158.435ZM230.526 181.402C230.542 181.384 230.804 181.578 231.264 181.95C231.77 182.371 232.414 182.904 233.177 183.547C234.783 184.908 236.986 186.8 239.403 188.913C241.469 190.714 243.522 192.529 245.563 194.357C246.178 194.918 246.792 195.479 247.404 196.041C247.831 196.442 248.064 196.679 248.048 196.697C248.033 196.714 247.77 196.52 247.311 196.148C246.805 195.727 246.16 195.195 245.398 194.551C243.309 192.778 241.234 190.989 239.171 189.185C237.106 187.384 235.053 185.569 233.012 183.741C232.276 183.07 231.656 182.503 231.17 182.057C230.737 181.657 230.511 181.42 230.526 181.402ZM247.729 196.212C247.722 196.187 248.046 196.053 248.63 195.828C249.284 195.586 250.122 195.272 251.128 194.901C253.237 194.112 256.152 193.019 259.331 191.72C262.048 190.612 264.747 189.459 267.426 188.262C268.24 187.905 269.052 187.545 269.863 187.182C270.441 186.932 270.765 186.798 270.778 186.821C270.791 186.845 270.484 187.015 269.924 187.308C269.365 187.6 268.545 188.009 267.528 188.492C264.877 189.757 262.189 190.943 259.467 192.05C256.746 193.158 253.993 194.188 251.212 195.137C250.142 195.498 249.274 195.778 248.672 195.96C248.076 196.14 247.74 196.23 247.729 196.212Z" fill="white"/>
<path d="M241.257 46.4379C241.056 46.3654 240.852 46.2998 240.646 46.2413C240.577 46.2216 240.51 46.2009 240.441 46.1833C240.369 46.1648 240.296 46.1472 240.223 46.1295C240.149 46.1116 240.075 46.0943 240.001 46.0775C239.93 46.062 239.86 46.0487 239.788 46.0349C239.641 46.0069 239.492 45.9821 239.344 45.9606C239.094 45.9258 238.842 45.9003 238.591 45.884C238.538 45.881 238.485 45.8758 238.432 45.8737C238.278 45.8664 238.122 45.8621 237.966 45.8621H166.268C165.614 45.8608 164.961 45.9268 164.32 46.059C160.229 46.8967 157.079 50.3268 156.65 54.5618C156.617 54.8912 156.601 55.222 156.601 55.553V202.445C156.601 206.64 159.259 210.211 162.979 211.56C162.996 211.566 163.012 211.572 163.029 211.577C163.213 211.642 163.401 211.702 163.59 211.756C163.658 211.776 163.726 211.797 163.795 211.814C163.867 211.833 163.94 211.85 164.012 211.868C164.156 211.904 164.302 211.935 164.448 211.962C164.528 211.978 164.607 211.992 164.687 212.005L164.892 212.037C164.978 212.049 165.065 212.059 165.153 212.07C165.216 212.077 165.279 212.084 165.344 212.091C165.443 212.1 165.544 212.107 165.644 212.113C165.697 212.116 165.75 212.122 165.803 212.124C165.957 212.131 166.113 212.135 166.269 212.135H237.968C238.298 212.135 238.628 212.119 238.957 212.085C243.506 211.622 247.124 207.996 247.587 203.434C247.62 203.108 247.637 202.778 247.637 202.443V55.553C247.634 51.3583 244.977 47.7876 241.257 46.4379Z" fill="#006B5A"/>
<path fill-rule="evenodd" clip-rule="evenodd" d="M177.44 144.596C177.325 144.657 177.195 144.683 177.065 144.674C176.935 144.664 176.811 144.618 176.705 144.541C176.6 144.464 176.519 144.359 176.471 144.238C176.422 144.117 176.409 143.985 176.432 143.857L176.807 141.702L175.225 140.185C175.13 140.095 175.062 139.979 175.03 139.852C174.998 139.726 175.002 139.592 175.042 139.467C175.082 139.343 175.157 139.232 175.257 139.148C175.357 139.063 175.479 139.009 175.609 138.991L177.806 138.676L178.798 136.697C178.856 136.581 178.945 136.483 179.055 136.414C179.166 136.346 179.293 136.309 179.423 136.309C179.553 136.309 179.68 136.346 179.791 136.414C179.901 136.483 179.99 136.581 180.047 136.697L181.039 138.676L183.237 138.991C183.367 139.009 183.489 139.063 183.589 139.147C183.689 139.232 183.764 139.342 183.804 139.467C183.844 139.592 183.848 139.726 183.816 139.853C183.784 139.98 183.716 140.095 183.621 140.185L182.038 141.702L182.414 143.857C182.437 143.985 182.424 144.117 182.375 144.238C182.327 144.359 182.245 144.464 182.14 144.541C182.035 144.618 181.911 144.664 181.781 144.674C181.651 144.684 181.521 144.657 181.405 144.597L179.423 143.572L177.44 144.596ZM188.62 144.596C188.505 144.657 188.375 144.683 188.245 144.674C188.115 144.664 187.991 144.618 187.885 144.541C187.78 144.464 187.699 144.359 187.651 144.238C187.602 144.117 187.589 143.985 187.612 143.857L187.987 141.702L186.405 140.185C186.31 140.095 186.242 139.979 186.21 139.852C186.178 139.726 186.182 139.592 186.222 139.467C186.262 139.343 186.337 139.232 186.437 139.148C186.537 139.063 186.659 139.009 186.789 138.991L188.986 138.676L189.978 136.697C190.036 136.581 190.125 136.483 190.235 136.414C190.346 136.346 190.473 136.309 190.603 136.309C190.733 136.309 190.86 136.346 190.971 136.414C191.081 136.483 191.17 136.581 191.227 136.697L192.219 138.676L194.417 138.991C194.547 139.009 194.669 139.063 194.769 139.147C194.869 139.232 194.944 139.342 194.984 139.467C195.024 139.592 195.028 139.726 194.996 139.853C194.964 139.98 194.896 140.095 194.801 140.185L193.218 141.702L193.594 143.857C193.617 143.985 193.604 144.117 193.555 144.238C193.507 144.359 193.425 144.464 193.32 144.541C193.215 144.618 193.091 144.664 192.961 144.674C192.831 144.684 192.701 144.657 192.585 144.597L190.603 143.572L188.62 144.596ZM199.8 144.596C199.685 144.657 199.555 144.683 199.425 144.674C199.295 144.664 199.171 144.618 199.065 144.541C198.96 144.464 198.879 144.359 198.831 144.238C198.782 144.117 198.769 143.985 198.792 143.857L199.167 141.702L197.585 140.185C197.49 140.095 197.422 139.979 197.39 139.852C197.358 139.726 197.362 139.592 197.402 139.467C197.442 139.343 197.517 139.232 197.617 139.148C197.717 139.063 197.839 139.009 197.969 138.991L200.166 138.676L201.158 136.697C201.216 136.581 201.305 136.483 201.415 136.414C201.526 136.346 201.653 136.309 201.783 136.309C201.913 136.309 202.04 136.346 202.151 136.414C202.261 136.483 202.35 136.581 202.407 136.697L203.399 138.676L205.597 138.991C205.727 139.009 205.849 139.063 205.949 139.147C206.049 139.232 206.124 139.342 206.164 139.467C206.204 139.592 206.208 139.726 206.176 139.853C206.144 139.98 206.076 140.095 205.981 140.185L204.398 141.702L204.774 143.857C204.797 143.985 204.784 144.117 204.735 144.238C204.687 144.359 204.605 144.464 204.5 144.541C204.395 144.618 204.271 144.664 204.141 144.674C204.011 144.684 203.881 144.657 203.765 144.597L201.783 143.572L199.8 144.596ZM211.41 144.596C211.295 144.657 211.165 144.683 211.035 144.674C210.905 144.664 210.781 144.618 210.675 144.541C210.57 144.464 210.489 144.359 210.441 144.238C210.392 144.117 210.379 143.985 210.402 143.857L210.777 141.702L209.195 140.185C209.1 140.095 209.032 139.979 209 139.852C208.968 139.726 208.972 139.592 209.012 139.467C209.052 139.343 209.127 139.232 209.227 139.148C209.327 139.063 209.449 139.009 209.579 138.991L211.776 138.676L212.768 136.697C212.826 136.581 212.915 136.483 213.025 136.414C213.136 136.346 213.263 136.309 213.393 136.309C213.523 136.309 213.65 136.346 213.761 136.414C213.871 136.483 213.96 136.581 214.017 136.697L215.009 138.676L217.207 138.991C217.337 139.009 217.459 139.063 217.559 139.147C217.659 139.232 217.734 139.342 217.774 139.467C217.814 139.592 217.818 139.726 217.786 139.853C217.754 139.98 217.686 140.095 217.591 140.185L216.008 141.702L216.384 143.857C216.407 143.985 216.394 144.117 216.345 144.238C216.297 144.359 216.215 144.464 216.11 144.541C216.005 144.618 215.881 144.664 215.751 144.674C215.621 144.684 215.491 144.657 215.375 144.597L213.393 143.572L211.41 144.596ZM223.02 144.596C222.905 144.657 222.775 144.683 222.645 144.674C222.515 144.664 222.391 144.618 222.285 144.541C222.18 144.464 222.099 144.359 222.051 144.238C222.002 144.117 221.989 143.985 222.012 143.857L222.387 141.702L220.805 140.185C220.71 140.095 220.642 139.979 220.61 139.852C220.578 139.726 220.582 139.592 220.622 139.467C220.662 139.343 220.737 139.232 220.837 139.148C220.937 139.063 221.059 139.009 221.189 138.991L223.386 138.676L224.378 136.697C224.436 136.581 224.525 136.483 224.635 136.414C224.746 136.346 224.873 136.309 225.003 136.309C225.133 136.309 225.26 136.346 225.371 136.414C225.481 136.483 225.57 136.581 225.627 136.697L226.619 138.676L228.817 138.991C228.947 139.009 229.069 139.063 229.169 139.147C229.269 139.232 229.344 139.342 229.384 139.467C229.424 139.592 229.428 139.726 229.396 139.853C229.364 139.98 229.296 140.095 229.201 140.185L227.618 141.702L227.994 143.857C228.017 143.985 228.004 144.117 227.955 144.238C227.907 144.359 227.825 144.464 227.72 144.541C227.615 144.618 227.491 144.664 227.361 144.674C227.231 144.684 227.101 144.657 226.985 144.597L225.003 143.572L223.02 144.596Z" fill="white"/>
<path d="M312.98 103.2C314.135 103.2 315.071 104.136 315.071 105.29C315.071 106.445 314.135 107.38 312.98 107.38C311.826 107.38 310.89 106.445 310.89 105.29C310.89 104.136 311.826 103.2 312.98 103.2Z" fill="#E1E4E5"/>
<path d="M64.8703 146.649C66.0247 146.649 66.9605 147.585 66.9605 148.74C66.9605 149.894 66.0247 150.83 64.8703 150.83C63.7159 150.83 62.78 149.894 62.78 148.74C62.78 147.585 63.7159 146.649 64.8703 146.649Z" fill="#E1E4E5"/>
<path d="M254.5 73.9599C255.655 73.9599 256.59 74.8957 256.59 76.0502C256.59 77.2046 255.655 78.1404 254.5 78.1404C253.346 78.1404 252.41 77.2046 252.41 76.0502C252.41 74.8957 253.346 73.9599 254.5 73.9599Z" fill="#E1E4E5"/>
<path d="M280.171 111.853L276.92 108.601L280.171 105.35L283.422 108.601L280.171 111.853Z" stroke="#E1E4E5" stroke-width="4" stroke-linecap="round" stroke-linejoin="round"/>
<path fill-rule="evenodd" clip-rule="evenodd" d="M138.498 146.765H88.1138C87.0599 146.764 86.0451 147.164 85.2752 147.884C84.5054 148.604 84.0379 149.589 83.9678 150.641L80.6606 200.219C80.3407 205.013 84.1462 209.081 88.9528 209.081H137.659C142.466 209.081 146.271 205.013 145.951 200.219L142.644 150.641C142.574 149.589 142.107 148.604 141.337 147.884C140.567 147.164 139.552 146.764 138.498 146.765Z" fill="#006B5A" stroke="#006B5A" stroke-width="13.417" stroke-linecap="round" stroke-linejoin="round"/>
<path fill-rule="evenodd" clip-rule="evenodd" d="M107.801 187.689C107.48 187.856 107.119 187.93 106.759 187.903C106.398 187.875 106.053 187.747 105.761 187.534C105.47 187.32 105.244 187.029 105.11 186.694C104.975 186.358 104.937 185.992 105 185.636L106.044 179.656L101.65 175.446C101.387 175.195 101.2 174.875 101.111 174.523C101.021 174.17 101.033 173.8 101.144 173.454C101.255 173.108 101.462 172.8 101.74 172.566C102.018 172.332 102.357 172.181 102.717 172.13L108.817 171.258L111.571 165.765C111.731 165.442 111.978 165.171 112.285 164.98C112.591 164.79 112.944 164.69 113.305 164.69C113.665 164.69 114.019 164.79 114.325 164.98C114.631 165.171 114.879 165.442 115.039 165.765L117.793 171.258L123.893 172.13C124.253 172.181 124.592 172.332 124.87 172.566C125.148 172.8 125.355 173.108 125.466 173.454C125.577 173.8 125.589 174.17 125.499 174.523C125.41 174.875 125.223 175.195 124.96 175.446L120.566 179.656L121.61 185.637C121.673 185.993 121.636 186.36 121.501 186.695C121.367 187.031 121.141 187.322 120.849 187.536C120.558 187.75 120.212 187.878 119.851 187.905C119.491 187.932 119.13 187.858 118.809 187.69L113.305 184.847L107.801 187.689Z" fill="white"/>
<path d="M125.772 154.365V137.748C125.772 130.864 120.193 125.284 113.309 125.284H113.305C106.421 125.284 100.842 130.864 100.842 137.748V154.365" stroke="#006B5A" stroke-width="13.417" stroke-linecap="round" stroke-linejoin="round"/>
<path fill-rule="evenodd" clip-rule="evenodd" d="M142.401 92.533C142.316 92.5774 142.22 92.597 142.125 92.5897C142.029 92.5825 141.937 92.5486 141.86 92.4919C141.783 92.4351 141.723 92.3579 141.687 92.2689C141.651 92.1799 141.641 92.0826 141.658 91.9882L141.935 90.4015L140.769 89.2843C140.7 89.2176 140.65 89.1327 140.627 89.0392C140.603 88.9458 140.606 88.8476 140.636 88.7558C140.665 88.664 140.72 88.5824 140.793 88.5202C140.867 88.458 140.957 88.4178 141.052 88.4041L142.671 88.1728L143.401 86.7155C143.444 86.6298 143.509 86.5576 143.59 86.5071C143.672 86.4567 143.766 86.4299 143.861 86.4299C143.957 86.4299 144.051 86.4567 144.132 86.5071C144.213 86.5576 144.279 86.6298 144.321 86.7155L145.052 88.1728L146.67 88.4041C146.766 88.4178 146.855 88.458 146.929 88.5202C147.003 88.5824 147.057 88.664 147.087 88.7558C147.116 88.8476 147.12 88.9458 147.096 89.0392C147.072 89.1327 147.023 89.2176 146.953 89.2843L145.788 90.4015L146.065 91.9886C146.082 92.0831 146.072 92.1805 146.036 92.2697C146.001 92.359 145.941 92.4364 145.863 92.4932C145.786 92.55 145.694 92.5838 145.598 92.591C145.502 92.5981 145.407 92.5781 145.322 92.5334L143.861 91.7788L142.401 92.533ZM259.57 98.5861C259.455 98.6465 259.325 98.6733 259.195 98.6635C259.065 98.6538 258.941 98.6077 258.835 98.5307C258.73 98.4537 258.649 98.3487 258.601 98.2278C258.552 98.1068 258.539 97.9747 258.562 97.8465L258.937 95.6918L257.355 94.1752C257.26 94.0847 257.192 93.9694 257.16 93.8425C257.128 93.7155 257.132 93.5821 257.172 93.4574C257.212 93.3327 257.287 93.2218 257.387 93.1375C257.487 93.0532 257.609 92.9988 257.739 92.9806L259.936 92.6663L260.928 90.6874C260.986 90.5709 261.075 90.4728 261.185 90.4042C261.296 90.3356 261.423 90.2993 261.553 90.2993C261.683 90.2993 261.81 90.3356 261.921 90.4042C262.031 90.4728 262.12 90.5709 262.177 90.6874L263.169 92.6663L265.367 92.9806C265.497 92.9986 265.619 93.0529 265.719 93.1372C265.819 93.2215 265.894 93.3324 265.934 93.4572C265.974 93.5819 265.978 93.7155 265.946 93.8425C265.914 93.9695 265.846 94.0848 265.751 94.1752L264.168 95.6918L264.544 97.8469C264.567 97.9752 264.554 98.1073 264.505 98.2282C264.457 98.3492 264.375 98.4541 264.27 98.5311C264.165 98.6082 264.041 98.6542 263.911 98.664C263.781 98.6738 263.651 98.6469 263.535 98.5865L261.553 97.5618L259.57 98.5861Z" fill="#E1E4E5"/>
<path fill-rule="evenodd" clip-rule="evenodd" d="M217.905 94.4814V115.018C217.917 116.067 217.58 117.091 216.948 117.929C216.316 118.767 215.423 119.372 214.411 119.648C207.224 121.349 199.74 121.349 192.553 119.648C191.54 119.372 190.648 118.767 190.016 117.929C189.384 117.091 189.047 116.067 189.059 115.018V94.4814" fill="white"/>
<path d="M217.905 94.4814V115.018C217.917 116.067 217.58 117.091 216.948 117.929C216.316 118.767 215.423 119.372 214.411 119.648C207.224 121.349 199.74 121.349 192.553 119.648C191.54 119.372 190.648 118.767 190.016 117.929C189.384 117.091 189.047 116.067 189.059 115.018V94.4814" stroke="white" stroke-width="7.76" stroke-linecap="round" stroke-linejoin="round"/>
<path fill-rule="evenodd" clip-rule="evenodd" d="M217.943 99.2887L225.696 97.4625C226.012 97.3878 226.31 97.2497 226.572 97.0565C226.833 96.8634 227.053 96.6193 227.217 96.3388C227.382 96.0584 227.488 95.7476 227.529 95.425C227.57 95.1025 227.545 94.775 227.456 94.4624L224.54 84.2564C224.163 82.9377 223.508 81.7148 222.62 80.6699C221.732 79.625 220.63 78.7822 219.389 78.1981L215.071 76.1655C213.79 75.5626 212.392 75.25 210.976 75.25H196.045C194.629 75.25 193.231 75.5626 191.95 76.1655L187.631 78.1981C186.39 78.7822 185.289 79.625 184.401 80.6699C183.512 81.7148 182.858 82.9377 182.481 84.2564L179.565 94.4624C179.476 94.775 179.451 95.1026 179.491 95.4252C179.532 95.7477 179.638 96.0587 179.803 96.3391C179.967 96.6196 180.187 96.8638 180.449 97.0569C180.71 97.2499 181.008 97.3879 181.325 97.4625L189.078 99.2887" fill="white"/>
<path d="M217.943 99.2887L225.696 97.4625C226.012 97.3878 226.31 97.2497 226.572 97.0565C226.833 96.8634 227.053 96.6193 227.217 96.3388C227.382 96.0584 227.488 95.7476 227.529 95.425C227.57 95.1025 227.545 94.775 227.456 94.4624L224.54 84.2564C224.163 82.9377 223.508 81.7148 222.62 80.6699C221.732 79.625 220.63 78.7822 219.389 78.1981L215.071 76.1655C213.79 75.5626 212.392 75.25 210.976 75.25H196.045C194.629 75.25 193.231 75.5626 191.95 76.1655L187.631 78.1981C186.39 78.7822 185.289 79.625 184.401 80.6699C183.512 81.7148 182.858 82.9377 182.481 84.2564L179.565 94.4624C179.476 94.775 179.451 95.1026 179.491 95.4252C179.532 95.7477 179.638 96.0587 179.803 96.3391C179.967 96.6196 180.187 96.8638 180.449 97.0569C180.71 97.2499 181.008 97.3879 181.325 97.4625L189.078 99.2887" stroke="white" stroke-width="7.76" stroke-linecap="round" stroke-linejoin="round"/>
<path fill-rule="evenodd" clip-rule="evenodd" d="M308.245 209.778H270.16C264.695 209.778 260.349 205.186 260.654 199.73L262.603 164.64C262.978 157.912 268.541 152.65 275.279 152.65H303.129C309.867 152.65 315.431 157.912 315.805 164.64L317.754 199.727C318.055 205.186 313.711 209.778 308.245 209.778Z" fill="#006B5A" stroke="#006B5A" stroke-width="10.25" stroke-linecap="round" stroke-linejoin="round"/>
<path d="M298.957 161.707C298.957 166.58 294.59 170.531 289.203 170.531C283.817 170.531 279.45 166.58 279.45 161.707" stroke="white" stroke-width="8.625" stroke-linecap="round" stroke-linejoin="round"/>
<path d="M312.029 128.276C312.997 134.952 308.364 141.148 301.67 142.121C294.98 143.093 288.77 138.469 287.798 131.794C286.83 125.123 291.467 118.922 298.157 117.949C304.851 116.976 311.061 121.601 312.029 128.276Z" fill="url(#paint0_linear_4_2268)"/>
<path d="M309.148 128.696C309.885 133.781 306.354 138.506 301.255 139.248C296.156 139.986 291.421 136.464 290.684 131.379C289.946 126.289 293.478 121.564 298.577 120.826C303.675 120.084 308.405 123.606 309.148 128.696Z" fill="white"/>
<path d="M301.729 135.33L301.997 136.95L300.508 137.183L300.249 135.605C298.76 135.749 297.275 135.521 296.356 135.023L296.883 133.133C297.716 133.552 298.851 133.775 299.938 133.71L299.54 131.294C297.826 131.159 295.891 130.912 295.552 128.846C295.298 127.314 296.227 125.82 298.535 125.191L298.271 123.585L299.761 123.352L300.019 124.93C301.149 124.842 302.284 124.963 303.185 125.34L302.734 127.235C301.906 126.932 301.092 126.806 300.335 126.834L300.743 129.292C302.457 129.409 304.358 129.665 304.693 131.704C304.937 133.212 304.023 134.692 301.729 135.33ZM299.191 129.167L298.851 127.114C298.089 127.411 297.85 127.877 297.926 128.357C298.013 128.859 298.501 129.069 299.191 129.167ZM302.323 132.258C302.241 131.75 301.763 131.546 301.087 131.424L301.418 133.422C302.136 133.147 302.399 132.719 302.323 132.258Z" fill="#E1E4E5"/>
<path d="M147.386 64.2201C147.997 68.4341 145.072 72.3453 140.847 72.9594C136.625 73.5734 132.705 70.6546 132.091 66.4406C131.479 62.2296 134.407 58.3157 138.63 57.7017C142.855 57.0877 146.775 60.0065 147.386 64.2201Z" fill="url(#paint1_linear_4_2268)"/>
<path d="M145.567 64.4851C146.033 67.695 143.804 70.6779 140.585 71.1462C137.367 71.6119 134.378 69.3888 133.912 66.1788C133.447 62.9659 135.676 59.9834 138.894 59.5177C142.113 59.049 145.099 61.2725 145.567 64.4851Z" fill="white"/>
<path d="M140.884 68.6732L141.053 69.6957L140.113 69.8423L139.95 68.8465C139.01 68.9376 138.073 68.7936 137.492 68.4792L137.825 67.286C138.351 67.5505 139.067 67.6915 139.753 67.6502L139.503 66.1254C138.42 66.0403 137.199 65.8842 136.985 64.5796C136.825 63.6129 137.411 62.6695 138.868 62.2731L138.702 61.2591L139.642 61.1121L139.805 62.1084C140.518 62.0525 141.235 62.129 141.803 62.3668L141.519 63.5631C140.996 63.3717 140.482 63.2926 140.004 63.3102L140.261 64.8617C141.343 64.9352 142.544 65.0969 142.755 66.3839C142.909 67.3359 142.332 68.2703 140.884 68.6732ZM139.282 64.7825L139.067 63.4865C138.587 63.6744 138.436 63.9686 138.484 64.2713C138.539 64.5886 138.847 64.7206 139.282 64.7825ZM141.259 66.7334C141.208 66.4131 140.905 66.2841 140.479 66.2076L140.688 67.4683C141.141 67.295 141.307 67.0246 141.259 66.7334Z" fill="#E1E4E5"/>
<path d="M150.005 115.35C150.891 121.46 146.651 127.131 140.524 128.022C134.401 128.912 128.717 124.68 127.827 118.57C126.941 112.464 131.186 106.789 137.308 105.898C143.435 105.008 149.119 109.24 150.005 115.35Z" fill="url(#paint2_linear_4_2268)"/>
<path d="M147.368 115.734C148.043 120.388 144.811 124.713 140.144 125.393C135.477 126.068 131.144 122.844 130.469 118.19C129.793 113.532 133.026 109.207 137.693 108.531C142.36 107.852 146.689 111.076 147.368 115.734Z" fill="white"/>
<path d="M140.578 121.807L140.823 123.289L139.46 123.503L139.224 122.058C137.861 122.19 136.502 121.981 135.66 121.525L136.142 119.795C136.905 120.179 137.944 120.384 138.939 120.324L138.575 118.112C137.006 117.989 135.235 117.763 134.924 115.871C134.692 114.47 135.542 113.102 137.655 112.527L137.413 111.057L138.776 110.844L139.013 112.288C140.048 112.207 141.086 112.318 141.91 112.663L141.498 114.397C140.74 114.12 139.995 114.005 139.302 114.03L139.675 116.28C141.244 116.387 142.984 116.621 143.291 118.487C143.515 119.868 142.677 121.223 140.578 121.807ZM138.255 116.165L137.944 114.286C137.247 114.559 137.028 114.985 137.098 115.424C137.177 115.884 137.624 116.076 138.255 116.165ZM141.121 118.994C141.047 118.53 140.609 118.343 139.991 118.232L140.293 120.06C140.951 119.808 141.192 119.416 141.121 118.994Z" fill="#E1E4E5"/>
<path d="M176.729 176.73H225.749C226.699 176.73 227.469 177.5 227.469 178.45C227.469 179.4 226.699 180.17 225.749 180.17H176.729C175.779 180.17 175.009 179.4 175.009 178.45C175.009 177.5 175.779 176.73 176.729 176.73Z" fill="white"/>
<path d="M176.729 166.41H221.879C222.829 166.41 223.599 167.18 223.599 168.13C223.599 169.08 222.829 169.85 221.879 169.85H176.729C175.779 169.85 175.009 169.08 175.009 168.13C175.009 167.18 175.779 166.41 176.729 166.41Z" fill="white"/>
<path d="M176.729 156.09H227.899C228.849 156.09 229.619 156.86 229.619 157.81C229.619 158.76 228.849 159.53 227.899 159.53H176.729C175.779 159.53 175.009 158.76 175.009 157.81C175.009 156.86 175.779 156.09 176.729 156.09Z" fill="white"/>
<path fill-rule="evenodd" clip-rule="evenodd" d="M295.625 101.05C287.907 101.05 281.65 94.7927 281.65 87.0751C281.65 79.3575 287.907 73.1001 295.625 73.1001C303.343 73.1001 309.6 79.3575 309.6 87.0751C309.6 94.7927 303.343 101.05 295.625 101.05Z" fill="#006B5A"/>
<path d="M300.284 84.9573L294.462 90.8861L290.967 87.3296" stroke="white" stroke-width="4.883" stroke-linecap="round" stroke-linejoin="round"/>
<path fill-rule="evenodd" clip-rule="evenodd" d="M269.395 75.2501C265.002 75.2501 261.44 71.6884 261.44 67.2951C261.44 62.9018 265.002 59.3401 269.395 59.3401C273.788 59.3401 277.35 62.9018 277.35 67.2951C277.35 71.6884 273.788 75.2501 269.395 75.2501Z" fill="#006B5A"/>
<path d="M272.047 66.0896L268.733 69.4642L266.744 67.4398" stroke="white" stroke-width="2.892" stroke-linecap="round" stroke-linejoin="round"/>
<path d="M125.973 79.98H100.19C95.4404 79.98 91.5901 83.8303 91.5901 88.58V103.879C91.5901 108.629 95.4404 112.479 100.19 112.479H125.973C130.723 112.479 134.573 108.629 134.573 103.879V88.58C134.573 83.8303 130.723 79.98 125.973 79.98Z" fill="#006B5A"/>
<path d="M117.203 108.738L115.035 106.57C113.859 105.395 111.954 105.395 110.778 106.57L108.61 108.738C107.435 109.914 107.435 111.82 108.61 112.995L110.778 115.163C111.954 116.338 113.859 116.338 115.035 115.163L117.203 112.995C118.378 111.82 118.378 109.914 117.203 108.738Z" fill="#006B5A"/>
<path fill-rule="evenodd" clip-rule="evenodd" d="M117.458 86.9692C121.218 86.9692 123.739 90.4836 123.739 93.7564C123.739 100.4 113.272 105.839 113.082 105.839C112.891 105.839 102.423 100.4 102.423 93.7564C102.423 90.4836 104.944 86.9692 108.705 86.9692C110.854 86.9692 112.265 88.0365 113.082 88.9872C113.897 88.0365 115.309 86.9692 117.458 86.9692Z" fill="white"/>
</g>
<defs>
<linearGradient id="paint0_linear_4_2268" x1="300.435" y1="155.946" x2="299.684" y2="91.2447" gradientUnits="userSpaceOnUse">
<stop stop-color="white"/>
<stop offset="1" stop-color="#EEEEEE"/>
</linearGradient>
<linearGradient id="paint1_linear_4_2268" x1="140.068" y1="81.6867" x2="139.593" y2="40.8448" gradientUnits="userSpaceOnUse">
<stop stop-color="white"/>
<stop offset="1" stop-color="#EEEEEE"/>
</linearGradient>
<linearGradient id="paint2_linear_4_2268" x1="139.394" y1="140.676" x2="138.706" y2="81.4562" gradientUnits="userSpaceOnUse">
<stop stop-color="white"/>
<stop offset="1" stop-color="#EEEEEE"/>
</linearGradient>
<clipPath id="clip0_4_2268">
<rect width="387" height="258" fill="white"/>
</clipPath>
</defs>
</svg>
