<svg width="41" height="40" viewBox="0 0 41 40" fill="none" xmlns="http://www.w3.org/2000/svg">
<rect x="0.5" width="40" height="40" rx="20" fill="#ECF1F4"/>
<path d="M20.5001 16.8758C18.7798 16.8758 17.3759 18.2797 17.3759 20C17.3759 21.7203 18.7798 23.1242 20.5001 23.1242C22.2204 23.1242 23.6243 21.7203 23.6243 20C23.6243 18.2797 22.2204 16.8758 20.5001 16.8758ZM29.8704 20C29.8704 18.7063 29.8822 17.4242 29.8095 16.1328C29.7368 14.6328 29.3947 13.3016 28.2978 12.2047C27.1986 11.1055 25.8697 10.7656 24.3697 10.693C23.0759 10.6203 21.7939 10.632 20.5025 10.632C19.2087 10.632 17.9267 10.6203 16.6353 10.693C15.1353 10.7656 13.804 11.1078 12.7071 12.2047C11.6079 13.3039 11.2681 14.6328 11.1954 16.1328C11.1228 17.4266 11.1345 18.7086 11.1345 20C11.1345 21.2914 11.1228 22.5758 11.1954 23.8672C11.2681 25.3672 11.6103 26.6984 12.7071 27.7953C13.8064 28.8945 15.1353 29.2344 16.6353 29.307C17.929 29.3797 19.2111 29.368 20.5025 29.368C21.7962 29.368 23.0782 29.3797 24.3697 29.307C25.8697 29.2344 27.2009 28.8922 28.2978 27.7953C29.397 26.6961 29.7368 25.3672 29.8095 23.8672C29.8845 22.5758 29.8704 21.2938 29.8704 20ZM20.5001 24.807C17.84 24.807 15.6931 22.6602 15.6931 20C15.6931 17.3399 17.84 15.193 20.5001 15.193C23.1603 15.193 25.3072 17.3399 25.3072 20C25.3072 22.6602 23.1603 24.807 20.5001 24.807ZM25.504 16.1188C24.8829 16.1188 24.3814 15.6172 24.3814 14.9961C24.3814 14.375 24.8829 13.8734 25.504 13.8734C26.1251 13.8734 26.6267 14.375 26.6267 14.9961C26.6269 15.1436 26.598 15.2897 26.5416 15.4259C26.4853 15.5622 26.4026 15.6861 26.2983 15.7904C26.194 15.8946 26.0702 15.9773 25.9339 16.0337C25.7976 16.09 25.6515 16.1189 25.504 16.1188Z" fill="#5D6466"/>
</svg>
