<svg width="41" height="40" viewBox="0 0 41 40" fill="none" xmlns="http://www.w3.org/2000/svg">
<rect x="0.5" width="40" height="40" rx="20" fill="#ECF1F4"/>
<path fill-rule="evenodd" clip-rule="evenodd" d="M17.929 16.969H21.643V18.819C22.178 17.755 23.55 16.799 25.611 16.799C29.562 16.799 30.5 18.917 30.5 22.803V30H26.5V23.688C26.5 21.475 25.965 20.227 24.603 20.227C22.714 20.227 21.929 21.572 21.929 23.687V30H17.929V16.969ZM11.07 29.83H15.07V16.799H11.07V29.83ZM15.643 12.55C15.6431 12.8853 15.5767 13.2172 15.4474 13.5266C15.3181 13.8359 15.1287 14.1165 14.89 14.352C14.4064 14.8326 13.7518 15.1017 13.07 15.1C12.3894 15.0995 11.7363 14.8312 11.252 14.353C11.0142 14.1167 10.8254 13.8358 10.6963 13.5264C10.5673 13.217 10.5006 12.8852 10.5 12.55C10.5 11.873 10.77 11.225 11.253 10.747C11.7369 10.2682 12.3902 9.9997 13.071 10C13.753 10 14.407 10.269 14.89 10.747C15.372 11.225 15.643 11.873 15.643 12.55Z" fill="#5D6466"/>
</svg>
