<svg width="382" height="209" viewBox="0 0 382 209" fill="none" xmlns="http://www.w3.org/2000/svg">
<path d="M180.311 48.6345V96.3785C180.311 105.821 177.507 115.052 172.254 122.904C167 130.755 159.534 136.875 150.798 140.488C142.063 144.102 132.45 145.047 123.177 143.205C113.903 141.363 105.385 136.816 98.6987 130.139C92.0127 123.461 87.4596 114.954 85.6149 105.693C83.7703 96.4315 84.717 86.8317 88.3354 78.1077C91.9538 69.3836 98.0814 61.927 105.943 56.6808C113.805 51.4347 123.048 48.6345 132.503 48.6345H180.311Z" fill="#00CAAC"/>
<path d="M196.565 144.123V96.3785C196.565 86.9357 199.369 77.7048 204.622 69.8534C209.876 62.0019 217.342 55.8825 226.078 52.2689C234.813 48.6552 244.426 47.7097 253.699 49.5519C262.973 51.3941 271.491 55.9413 278.177 62.6184C284.863 69.2955 289.416 77.8027 291.261 87.0641C293.106 96.3256 292.159 105.925 288.541 114.649C284.922 123.373 278.795 130.83 270.933 136.076C263.071 141.322 253.828 144.123 244.373 144.123H196.565Z" fill="#00CAAC"/>
</svg>
