<svg width="646" height="431" viewBox="0 0 646 431" fill="none" xmlns="http://www.w3.org/2000/svg">
<g clip-path="url(#clip0_4_2556)">
<path d="M331.265 295.663C294.689 267.661 239.422 262.72 196.251 280.839C184.369 285.811 170.449 279.025 170.449 267.813V96.8523C170.449 87.6791 175.363 78.8839 183.958 73.2924C228.433 44.3234 291.115 47.7685 331.265 83.6292C371.416 47.7685 434.098 44.3234 478.573 73.3082C487.167 78.899 492.081 87.6942 492.081 96.8523V267.797C492.081 279.01 478.162 285.811 466.279 280.824C423.109 262.72 367.842 267.661 331.265 295.663Z" stroke="#E1E4E5" stroke-width="10" stroke-linecap="round" stroke-linejoin="round"/>
<path d="M170.449 152.857V323.739C170.449 334.947 184.369 341.728 196.251 336.759C239.422 318.648 294.689 323.588 331.265 351.577C367.842 323.588 423.109 318.648 466.279 336.744C478.162 341.728 492.081 334.932 492.081 323.723V152.857M331.265 295.663V83.3433" stroke="#E1E4E5" stroke-width="10" stroke-linecap="round" stroke-linejoin="round"/>
<path fill-rule="evenodd" clip-rule="evenodd" d="M370.399 253.639L396.196 201.287L331.475 106.766L266.738 201.287L292.535 253.639" fill="#006B5A"/>
<path d="M370.399 253.639L396.196 201.287L331.475 106.766L266.738 201.287L292.535 253.639" stroke="white" stroke-width="14.86" stroke-linecap="round" stroke-linejoin="round"/>
<path fill-rule="evenodd" clip-rule="evenodd" d="M292.156 253.806H370.65V299.002H292.156V253.806Z" fill="#006B5A" stroke="white" stroke-width="14.86" stroke-linecap="round" stroke-linejoin="round"/>
<path d="M331.455 200.113V106.766" stroke="white" stroke-width="14.86" stroke-linecap="round" stroke-linejoin="round"/>
<path d="M549.872 180.946C530.074 190.775 503.796 178.137 503.796 178.137C503.796 178.137 509.637 149.569 529.445 139.754C549.244 129.925 575.511 142.55 575.511 142.55C575.511 142.55 569.671 171.117 549.872 180.946Z" fill="url(#paint0_linear_4_2556)"/>
<path d="M213.011 175.212C224.474 182.087 240.919 175.731 240.919 175.731C240.919 175.731 238.768 158.231 227.299 151.364C215.836 144.488 199.398 150.836 199.398 150.836C199.398 150.836 201.548 168.336 213.011 175.212Z" fill="url(#paint1_linear_4_2556)"/>
<path d="M519.502 249.573C513.531 249.573 508.691 254.417 508.691 260.392C508.691 266.367 513.531 271.21 519.502 271.21C525.472 271.21 530.312 266.367 530.312 260.392C530.312 254.417 525.472 249.573 519.502 249.573Z" fill="#006B5A"/>
<path d="M137.068 182.325C132.153 182.325 128.169 186.312 128.169 191.231C128.169 196.15 132.153 200.137 137.068 200.137C141.983 200.137 145.967 196.15 145.967 191.231C145.967 186.312 141.983 182.325 137.068 182.325Z" fill="#006B5A"/>
<path d="M150.502 305.376C144.905 305.376 140.367 300.835 140.367 295.233C140.367 289.631 144.905 285.09 150.502 285.09C156.1 285.09 160.637 289.631 160.637 295.233C160.637 300.835 156.1 305.376 150.502 305.376Z" fill="#006B5A"/>
<path d="M450.001 166.102C447.389 166.102 445.271 163.983 445.271 161.369C445.271 158.755 447.389 156.635 450.001 156.635C452.613 156.635 454.73 158.755 454.73 161.369C454.73 163.983 452.613 166.102 450.001 166.102Z" fill="#006B5A"/>
<path d="M146.331 72.847C142.972 72.847 140.25 70.1223 140.25 66.7613C140.25 63.4002 142.972 60.6755 146.331 60.6755C149.689 60.6755 152.412 63.4002 152.412 66.7613C152.412 70.1223 149.689 72.847 146.331 72.847Z" fill="#E1E4E5"/>
<path d="M70.5125 283.02C65.6615 283.02 61.729 279.085 61.729 274.23C61.729 269.375 65.6615 265.44 70.5125 265.44C75.3634 265.44 79.2959 269.375 79.2959 274.23C79.2959 279.085 75.3634 283.02 70.5125 283.02Z" fill="#E1E4E5"/>
<path d="M411.287 363.342C407.595 363.342 404.602 360.346 404.602 356.652C404.602 352.957 407.595 349.962 411.287 349.962C414.978 349.962 417.971 352.957 417.971 356.652C417.971 360.346 414.978 363.342 411.287 363.342Z" fill="#E1E4E5"/>
<path d="M442.133 110.308C438.029 110.308 434.701 106.978 434.701 102.87C434.701 98.7626 438.029 95.4326 442.133 95.4326C446.238 95.4326 449.565 98.7626 449.565 102.87C449.565 106.978 446.238 110.308 442.133 110.308Z" fill="#E1E4E5"/>
<path d="M93.7146 153.264C94.6685 156.827 92.5557 160.489 88.9954 161.444C85.4351 162.399 81.7755 160.284 80.8216 156.721C79.8676 153.158 81.9804 149.496 85.5407 148.541C89.101 147.586 92.7606 149.701 93.7146 153.264Z" fill="#E1E4E5"/>
<path d="M238.218 106.403C233.315 106.403 229.339 102.425 229.339 97.5174C229.339 92.6099 233.315 88.6316 238.218 88.6316C243.122 88.6316 247.097 92.6099 247.097 97.5174C247.097 102.425 243.122 106.403 238.218 106.403Z" fill="#E1E4E5"/>
<path d="M563.087 324.733C559.315 324.733 556.257 322.285 556.257 319.265C556.257 316.246 559.315 313.797 563.087 313.797C566.859 313.797 569.916 316.246 569.916 319.265C569.916 322.285 566.859 324.733 563.087 324.733Z" fill="#E1E4E5"/>
<path d="M263.543 355.936C265.528 363.352 261.131 370.974 253.721 372.961C246.311 374.948 238.695 370.547 236.71 363.132C234.724 355.716 239.121 348.094 246.531 346.107C253.941 344.12 261.557 348.521 263.543 355.936Z" fill="#E1E4E5"/>
<path d="M467.288 206.504H467.466C468.524 221.506 479.673 221.737 479.673 221.737C479.673 221.737 467.38 221.977 467.38 239.312C467.38 221.977 455.086 221.737 455.086 221.737C455.086 221.737 466.23 221.506 467.288 206.504ZM107.534 329.299H107.627C108.181 337.444 114.009 337.569 114.009 337.569C114.009 337.569 107.582 337.7 107.582 347.111C107.582 337.7 101.154 337.569 101.154 337.569C101.154 337.569 106.981 337.444 107.534 329.299Z" fill="#E1E4E5"/>
</g>
<defs>
<linearGradient id="paint0_linear_4_2556" x1="473.844" y1="211.604" x2="637.24" y2="82.4576" gradientUnits="userSpaceOnUse">
<stop stop-color="white"/>
<stop offset="1" stop-color="#EEEEEE"/>
</linearGradient>
<linearGradient id="paint1_linear_4_2556" x1="257.368" y1="197.343" x2="165.07" y2="111.652" gradientUnits="userSpaceOnUse">
<stop stop-color="white"/>
<stop offset="1" stop-color="#EEEEEE"/>
</linearGradient>
<clipPath id="clip0_4_2556">
<rect width="646" height="431" fill="white"/>
</clipPath>
</defs>
</svg>
