<svg width="41" height="40" viewBox="0 0 41 40" fill="none" xmlns="http://www.w3.org/2000/svg">
<rect x="0.5" width="40" height="40" rx="20" fill="#ECF1F4"/>
<path d="M30.2499 13.9602C29.5327 14.2695 28.7522 14.4922 27.9483 14.5789C28.783 14.0831 29.408 13.2997 29.7061 12.3758C28.9229 12.8417 28.0649 13.1684 27.1702 13.3414C26.7962 12.9416 26.344 12.6232 25.8415 12.4058C25.3391 12.1885 24.7973 12.0769 24.2499 12.0781C22.035 12.0781 20.2538 13.8734 20.2538 16.0766C20.2538 16.386 20.2913 16.6953 20.3522 16.993C17.0358 16.8195 14.078 15.2352 12.1116 12.8094C11.7533 13.4214 11.5656 14.1182 11.5679 14.8274C11.5679 16.2149 12.2733 17.4383 13.3491 18.1578C12.7151 18.1329 12.096 17.9586 11.5421 17.6492V17.6985C11.5421 19.6414 12.9155 21.2516 14.746 21.6219C14.4023 21.7112 14.0487 21.7568 13.6937 21.7578C13.4335 21.7578 13.1874 21.732 12.939 21.6969C13.4452 23.2813 14.9194 24.4321 16.6749 24.4696C15.3015 25.5453 13.5812 26.1781 11.7132 26.1781C11.378 26.1781 11.0687 26.1664 10.7476 26.1289C12.5194 27.2656 14.6218 27.9219 16.8858 27.9219C24.2358 27.9219 28.2577 21.8328 28.2577 16.5477C28.2577 16.3742 28.2577 16.2008 28.246 16.0274C29.0241 15.4578 29.7061 14.7524 30.2499 13.9602Z" fill="#5D6466"/>
</svg>

